<?xml version="1.0" encoding="iso-8859-1"?>
<!-- Generator: Adobe Illustrator 18.1.1, SVG Export Plug-In . SVG Version: 6.00 Build 0)  -->
<svg version="1.1" id="Capa_1" xmlns="http://www.w3.org/2000/svg" xmlns:xlink="http://www.w3.org/1999/xlink" x="0px" y="0px"
	 viewBox="0 0 477.983 477.983" style="enable-background:new 0 0 477.983 477.983;" xml:space="preserve">
<g>
	<g>
		<path d="M400.696,36.267L200.663,102l-38.533-39.95l-0.283-0.283C133.513,33.433,92.146,0,55.313,0
			C40.296,0,26.979,5.383,16.496,15.867c-15.017,15.017-27.483,42.217-1.133,87.267c13.6,23.517,33.433,44.483,47.033,58.083
			l0.283,0.283l39.667,38.25l-65.733,200.6c-2.267,7.083,0.283,15.017,6.517,19.267l64.033,44.2c7.65,5.383,18.133,3.4,23.517-4.25
			l96.333-139.117l24.65,23.8l10.483,118.15c0.567,6.517,4.817,12.183,11.05,14.45c1.983,0.567,3.967,1.133,5.95,1.133
			c4.533,0,8.783-1.7,11.9-5.1l181.9-181.9c4.817-4.817,6.233-11.9,3.967-18.133c-2.267-6.233-8.217-10.483-14.733-11.05
			l-114.75-7.367l-26.633-27.767l138.833-96.05c7.65-5.383,9.633-15.867,4.25-23.517l-44.2-64.033
			C415.713,36.833,407.779,34,400.696,36.267z M285.096,210.233c-3.967,2.833-6.8,7.367-7.367,12.183s1.133,9.917,4.817,13.6
			l45.05,46.75c2.833,3.117,6.8,4.817,11.05,5.1l83.867,5.383L293.029,422.733l-7.65-88.117c-0.283-3.967-2.267-7.933-5.1-10.767
			l-43.633-42.217c-3.683-3.4-8.5-5.1-13.6-4.817s-9.35,3.4-12.183,7.65l-98.317,141.667l-39.667-27.2l65.167-198.617
			c1.983-6.233,0.283-13.033-4.25-17.567l-47.033-45.617c-12.467-12.467-30.033-31.167-41.933-51
			c-18.417-31.733-7.65-42.5-4.25-45.9c3.967-3.967,8.5-5.95,14.733-5.95c19.267,0,50.15,19.267,82.45,51.85l45.9,47.6
			c4.533,4.817,11.333,6.517,17.567,4.25L399.279,73.1l27.2,39.667L285.096,210.233z"/>
	</g>
</g>
<g>
</g>
<g>
</g>
<g>
</g>
<g>
</g>
<g>
</g>
<g>
</g>
<g>
</g>
<g>
</g>
<g>
</g>
<g>
</g>
<g>
</g>
<g>
</g>
<g>
</g>
<g>
</g>
<g>
</g>
</svg>
