<?xml version="1.0" encoding="iso-8859-1"?>
<!-- Generator: Adobe Illustrator 18.1.1, SVG Export Plug-In . SVG Version: 6.00 Build 0)  -->
<svg version="1.1" id="Capa_1" xmlns="http://www.w3.org/2000/svg" xmlns:xlink="http://www.w3.org/1999/xlink" x="0px" y="0px"
	 viewBox="0 0 498.667 498.667" style="enable-background:new 0 0 498.667 498.667;" xml:space="preserve">
<g>
	<g>
		<path d="M216.75,269.167h-31.167c-9.35,0-17,7.65-17,17V314.5c0,9.35,7.65,17,17,17h31.167c9.35,0,17-7.65,17-17v-28.333
			C233.75,276.817,226.1,269.167,216.75,269.167z"/>
		<path d="M330.083,314.5v-28.333c0-9.35-7.65-17-17-17H284.75c-9.35,0-17,7.65-17,17V314.5c0,9.35,7.65,17,17,17h28.333
			C322.433,331.5,330.083,323.85,330.083,314.5z"/>
		<path d="M216.75,175.667h-31.167c-9.35,0-17,7.65-17,17V221c0,9.35,7.65,17,17,17h31.167c9.35,0,17-7.65,17-17v-28.333
			C233.75,183.317,226.1,175.667,216.75,175.667z"/>
		<path d="M284.75,238h28.333c9.35,0,17-7.65,17-17v-28.333c0-9.35-7.65-17-17-17H284.75c-9.35,0-17,7.65-17,17V221
			C267.75,230.35,275.4,238,284.75,238z"/>
		<path d="M216.75,85h-31.167c-9.35,0-17,7.65-17,17v28.333c0,9.35,7.65,17,17,17h31.167c9.35,0,17-7.65,17-17V102
			C233.75,92.65,226.1,85,216.75,85z"/>
		<path d="M284.75,147.333h28.333c9.35,0,17-7.65,17-17V102c0-9.35-7.65-17-17-17H284.75c-9.35,0-17,7.65-17,17v28.333
			C267.75,139.683,275.4,147.333,284.75,147.333z"/>
		<path d="M406.583,90.95V17c0-9.35-7.65-17-17-17h-280.5c-9.35,0-17,7.65-17,17v73.95l-77.35,79.9
			c-3.117,3.117-4.817,7.367-4.817,11.9v298.917c0,9.35,7.65,17,17,17h82.167h73.667c6.233,0,11.617-3.4,14.45-8.217
			c4.817-3.117,8.217-8.217,8.217-14.45v-65.167h87.833V476c0,7.65,5.1,14.167,12.183,16.433c3.117,3.967,7.933,6.233,13.317,6.233
			h70.833h82.167c9.35,0,17-7.65,17-17V182.75c0-4.533-1.7-8.783-4.817-11.9L406.583,90.95z M43.917,189.55l48.167-49.867v324.983
			H43.917V189.55z M188.417,376.833c-9.35,0-17,7.65-17,17v70.833h-45.333V97.75V34h246.5v63.75v366.917H327.25v-70.833
			c0-9.35-7.65-17-17-17H188.417z M454.75,464.667h-48.167V139.683l48.167,49.867V464.667z"/>
	</g>
</g>
<g>
</g>
<g>
</g>
<g>
</g>
<g>
</g>
<g>
</g>
<g>
</g>
<g>
</g>
<g>
</g>
<g>
</g>
<g>
</g>
<g>
</g>
<g>
</g>
<g>
</g>
<g>
</g>
<g>
</g>
</svg>
