<?xml version="1.0" encoding="iso-8859-1"?>
<!-- Generator: Adobe Illustrator 18.1.1, SVG Export Plug-In . SVG Version: 6.00 Build 0)  -->
<svg version="1.1" id="Capa_1" xmlns="http://www.w3.org/2000/svg" xmlns:xlink="http://www.w3.org/1999/xlink" x="0px" y="0px"
	 viewBox="0 0 432.15 432.15" style="enable-background:new 0 0 432.15 432.15;" xml:space="preserve">
<g>
	<g>
		<path d="M321.758,431.867c39.95,0,72.533-32.583,72.533-72.533S361.708,286.8,321.758,286.8c-13.317,0-25.5,3.683-36.267,9.633
			l-45.9-44.483l6.517-5.383c2.833-2.267,4.817-5.1,5.667-8.5L315.242,24.15c2.55-9.067-2.55-18.417-11.333-21.25
			c-9.067-2.55-18.417,2.55-21.25,11.333L220.892,223.05l-5.667,4.533l-3.683-3.683L153.175,12.534
			c-2.55-9.067-11.9-14.45-20.967-11.9c-9.067,2.55-14.45,11.9-11.9,20.967l59.5,216.75c0.85,2.833,2.267,5.667,4.533,7.65
			l3.967,3.967l-51,40.8c-0.283,0.283-0.85,0.567-1.133,1.133c-7.933-3.117-16.717-4.817-25.783-4.817
			c-39.95,0-72.533,32.583-72.533,72.533s32.583,72.533,72.533,72.533s72.533-32.583,72.533-72.533
			c0-18.133-6.8-34.567-17.85-47.317l47.883-38.25l47.883,46.467c-7.367,11.333-11.617,24.933-11.617,39.383
			C249.225,399.284,281.808,431.867,321.758,431.867z M110.392,397.867c-21.25,0-38.533-17.283-38.533-38.533
			S89.142,320.8,110.392,320.8s38.533,17.283,38.533,38.533C148.925,380.584,131.642,397.867,110.392,397.867z M360.292,359.334
			c0,21.25-17.283,38.533-38.533,38.533s-38.533-17.283-38.533-38.533s17.283-38.533,38.533-38.533
			C343.008,320.8,360.292,338.084,360.292,359.334z"/>
	</g>
</g>
<g>
</g>
<g>
</g>
<g>
</g>
<g>
</g>
<g>
</g>
<g>
</g>
<g>
</g>
<g>
</g>
<g>
</g>
<g>
</g>
<g>
</g>
<g>
</g>
<g>
</g>
<g>
</g>
<g>
</g>
</svg>
