<?xml version="1.0" encoding="iso-8859-1"?>
<!-- Generator: Adobe Illustrator 18.1.1, SVG Export Plug-In . SVG Version: 6.00 Build 0)  -->
<svg version="1.1" id="Capa_1" xmlns="http://www.w3.org/2000/svg" xmlns:xlink="http://www.w3.org/1999/xlink" x="0px" y="0px"
	 viewBox="0 0 501.5 501.5" style="enable-background:new 0 0 501.5 501.5;" xml:space="preserve">
<g>
	<g>
		<path d="M327.25,75.367C327.25,33.717,293.533,0,251.883,0h-5.1c-41.65,0-75.367,33.717-75.367,75.367v172.267
			c0,41.65,33.717,75.367,75.367,75.367h5.1c41.65,0,75.367-33.717,75.367-75.367V75.367z M293.25,247.633
			c0,22.95-18.417,41.367-41.367,41.367h-5.1c-22.95,0-41.367-18.417-41.367-41.367V75.367c0-22.95,18.417-41.367,41.367-41.367h5.1
			c22.95,0,41.367,18.417,41.367,41.367V247.633z"/>
		<path d="M97.75,200.6c-9.35,0-17,7.65-17,17c0,92.933,64.317,170.283,147.333,182.183V467.5h-76.5c-9.35,0-17,7.65-17,17
			s7.65,17,17,17h198.333c9.35,0,17-7.65,17-17s-7.65-17-17-17h-87.833v-66.3c88.4-6.233,158.667-86.133,158.667-183.317
			c0-9.35-7.65-17-17-17s-17,7.65-17,17c0,82.733-60.917,149.883-136,149.883s-136-67.433-136-150.167
			C114.75,208.25,107.1,200.6,97.75,200.6z"/>
	</g>
</g>
<g>
</g>
<g>
</g>
<g>
</g>
<g>
</g>
<g>
</g>
<g>
</g>
<g>
</g>
<g>
</g>
<g>
</g>
<g>
</g>
<g>
</g>
<g>
</g>
<g>
</g>
<g>
</g>
<g>
</g>
</svg>
