<?xml version="1.0" encoding="iso-8859-1"?>
<!-- Generator: Adobe Illustrator 18.1.1, SVG Export Plug-In . SVG Version: 6.00 Build 0)  -->
<svg version="1.1" id="Capa_1" xmlns="http://www.w3.org/2000/svg" xmlns:xlink="http://www.w3.org/1999/xlink" x="0px" y="0px"
	 viewBox="0 0 498.383 498.383" style="enable-background:new 0 0 498.383 498.383;" xml:space="preserve">
<g>
	<g>
		<path d="M38.108,149.883h34v331.5c0,9.35,7.65,17,17,17h311.667c9.35,0,17-7.65,17-17v-331.5h42.5c9.35,0,17-7.65,17-17
			s-7.65-17-17-17h-81.033c-0.567-14.733-4.25-50.15-30.883-78.2C324.842,12.75,290.558,0,246.075,0s-77.917,12.75-99.167,37.967
			c-23.517,27.767-24.65,62.333-23.8,77.917h-85c-9.35,0-17,7.65-17,17S28.758,149.883,38.108,149.883z M172.408,59.783
			C186.858,42.5,211.508,34,245.792,34c34.567,0,60.633,9.067,77.35,26.633c18.417,19.267,21.25,45.05,21.817,55.25h-187.85
			C156.258,107.1,155.692,79.9,172.408,59.783z M383.775,149.883v314.5H106.108v-314.5H383.775z" fill="#ff5f00"/>
		<path d="M191.108,416.217c9.35,0,17-7.65,17-17v-195.5c0-9.35-7.65-17-17-17c-9.35,0-17,7.65-17,17v195.5
			C174.108,408.567,181.758,416.217,191.108,416.217z" fill="#ff5f00"/>
		<path d="M298.775,416.217c9.35,0,17-7.65,17-17v-195.5c0-9.35-7.65-17-17-17s-17,7.65-17,17v195.5
			C281.775,408.567,289.425,416.217,298.775,416.217z" fill="#ff5f00"/>
	</g>
</g>
<g>
</g>
<g>
</g>
<g>
</g>
<g>
</g>
<g>
</g>
<g>
</g>
<g>
</g>
<g>
</g>
<g>
</g>
<g>
</g>
<g>
</g>
<g>
</g>
<g>
</g>
<g>
</g>
<g>
</g>
</svg>
