<?xml version="1.0" encoding="iso-8859-1"?>
<!-- Generator: Adobe Illustrator 18.1.1, SVG Export Plug-In . SVG Version: 6.00 Build 0)  -->
<svg version="1.1" id="Capa_1" xmlns="http://www.w3.org/2000/svg" xmlns:xlink="http://www.w3.org/1999/xlink" x="0px" y="0px"
	 viewBox="0 0 478.297 478.297" style="enable-background:new 0 0 478.297 478.297;" xml:space="preserve">
<g>
	<g>
		<path d="M425.298,28.93l-121.55,78.2L181.915,3.996c-5.95-4.817-14.167-5.383-20.683-1.133L34.015,89.846
			c-4.533,3.117-7.367,8.5-7.367,14.167V419.93c0,6.233,3.4,12.183,9.067,15.017s12.183,2.55,17.567-1.133l107.383-73.383
			l130.05,113.617c3.117,2.833,7.083,4.25,11.05,4.25c3.117,0,5.95-0.85,8.783-2.55l132.883-79.617c5.1-3.117,8.217-8.5,8.217-14.45
			V43.096c0-6.233-3.4-11.9-8.783-15.017C437.198,25.246,430.682,25.53,425.298,28.93z M417.648,372.33l-113.9,68.283
			l-124.1-108.517v-64.033c0-9.35-7.65-17-17-17c-9.35,0-17,7.65-17,17v61.767l-85,58.083V113.08l109.083-74.517l114.75,96.617
			v215.05c0,9.35,7.65,17,17,17s17-7.65,17-17V138.296l99.167-64.033V372.33z"/>
		<path d="M221.865,111.663c-6.517-6.517-17.283-6.517-24.083,0l-28.9,28.9l-28.9-28.9c-6.517-6.517-17.283-6.517-24.083,0
			c-6.517,6.517-6.517,17.283,0,24.083l28.9,28.9l-28.9,29.183c-6.517,6.517-6.517,17.283,0,24.083c3.4,3.4,7.65,5.1,11.9,5.1
			c4.25,0,8.783-1.7,11.9-5.1l29.183-29.183l28.9,28.9c3.4,3.4,7.65,5.1,11.9,5.1s8.783-1.7,11.9-5.1
			c6.517-6.517,6.517-17.283,0-24.083l-28.617-28.9l28.9-28.9C228.665,128.946,228.665,118.18,221.865,111.663z"/>
	</g>
</g>
<g>
</g>
<g>
</g>
<g>
</g>
<g>
</g>
<g>
</g>
<g>
</g>
<g>
</g>
<g>
</g>
<g>
</g>
<g>
</g>
<g>
</g>
<g>
</g>
<g>
</g>
<g>
</g>
<g>
</g>
</svg>
