<?xml version="1.0" encoding="iso-8859-1"?>
<!-- Generator: Adobe Illustrator 18.1.1, SVG Export Plug-In . SVG Version: 6.00 Build 0)  -->
<svg version="1.1" id="Capa_1" xmlns="http://www.w3.org/2000/svg" xmlns:xlink="http://www.w3.org/1999/xlink" x="0px" y="0px"
	 viewBox="0 0 510.703 510.703" style="enable-background:new 0 0 510.703 510.703;" xml:space="preserve">
<g>
	<g>
		<path d="M447.688,264.418c1.417-14.733,2.267-38.817-4.817-65.45c-10.2-39.383-39.383-91.233-119.567-115.317
			c-17.567-5.383-34.567-7.933-50.433-7.933c-82.45,0-124.95,71.117-139.967,119.567c-4.25-0.283-8.783-0.567-14.167-0.567
			c-60.633,0-102.85,34.85-115.317,95.483c-10.483,49.583,5.1,81.6,20.117,100.017c25.217,30.883,66.3,44.767,96.05,44.767h296.65
			c0.85,0,2.267,0,3.967,0l0,0c33.433,0,73.667-15.3,86.417-57.8C524.188,318.818,481.404,280.851,447.688,264.418z
			 M474.038,367.551c-3.117,10.2-14.167,33.433-53.833,33.433c-1.417,0-1.983,0-2.267,0c-0.283,0-0.85,0-1.133,0H119.588
			c-20.967,0-51.567-10.2-69.7-32.3c-14.733-18.133-19.267-42.217-13.033-71.683c9.633-45.617,37.117-68.567,82.167-68.567
			c13.033,0,22.667,2.267,22.667,2.267c4.533,1.133,9.35,0.283,13.033-2.267c3.967-2.55,6.517-6.517,7.65-11.05
			c0.283-1.133,23.233-107.95,110.783-107.95c12.75,0,26.35,2.267,40.8,6.517c123.25,36.833,99.733,150.167,98.6,154.983
			c-1.983,8.5,2.833,17,10.767,19.833C426.154,291.901,489.621,315.418,474.038,367.551z"/>
	</g>
</g>
<g>
</g>
<g>
</g>
<g>
</g>
<g>
</g>
<g>
</g>
<g>
</g>
<g>
</g>
<g>
</g>
<g>
</g>
<g>
</g>
<g>
</g>
<g>
</g>
<g>
</g>
<g>
</g>
<g>
</g>
</svg>
