<?xml version="1.0" encoding="iso-8859-1"?>
<!-- Generator: Adobe Illustrator 18.1.1, SVG Export Plug-In . SVG Version: 6.00 Build 0)  -->
<svg version="1.1" id="Capa_1" xmlns="http://www.w3.org/2000/svg" xmlns:xlink="http://www.w3.org/1999/xlink" x="0px" y="0px"
	 viewBox="0 0 442.403 442.403" style="enable-background:new 0 0 442.403 442.403;" xml:space="preserve">
<g>
	<g>
		<path d="M213.05,422.652c2.833,1.7,5.95,2.833,9.35,2.833c3.117,0,6.517-0.85,9.35-2.833c7.65-5.1,187.283-123.533,207.683-243.95
			c10.483-62.333-8.783-100.867-26.633-122.117c-20.967-24.933-52.133-39.667-83.017-39.667c-10.2,0-20.117,1.7-28.9,5.1
			c-43.067,16.15-72.25,44.767-88.117,64.317c-15.583-19.267-42.217-47.033-74.517-58.083c-9.917-3.4-20.683-5.1-32.017-5.1
			c-28.9,0-56.383,11.9-75.367,32.867c-16.717,18.417-35.7,53.55-29.75,114.75C13.016,291.185,204.833,417.268,213.05,422.652z
			 M56.083,78.685c17.283-18.983,38.817-21.817,50.15-21.817c7.367,0,14.45,1.133,20.967,3.4
			c39.383,13.317,70.833,63.467,71.4,63.75c3.117,5.1,8.783,8.217,14.733,7.933c5.95,0,11.333-3.4,14.45-8.5
			c0.283-0.567,28.617-48.733,85.283-69.983c4.817-1.7,10.767-2.833,16.717-2.833c20.967,0,42.217,10.483,56.95,27.767
			c19.267,22.667,25.783,55.533,18.983,94.633c-7.367,43.067-42.5,94.633-101.717,149.317c-33.433,30.883-66.3,54.683-81.6,65.45
			c-16.15-11.05-51-36.55-86.417-68.85C74.216,262.285,39.366,209.868,35.116,167.368C31.433,128.552,38.516,97.952,56.083,78.685z"
 fill="white"			/>
	</g>
</g>
<g>
</g>
<g>
</g>
<g>
</g>
<g>
</g>
<g>
</g>
<g>
</g>
<g>
</g>
<g>
</g>
<g>
</g>
<g>
</g>
<g>
</g>
<g>
</g>
<g>
</g>
<g>
</g>
<g>
</g>
</svg>
