<?xml version="1.0" encoding="iso-8859-1"?>
<!-- Generator: Adobe Illustrator 18.1.1, SVG Export Plug-In . SVG Version: 6.00 Build 0)  -->
<svg version="1.1" id="Capa_1" xmlns="http://www.w3.org/2000/svg" xmlns:xlink="http://www.w3.org/1999/xlink" x="0px" y="0px"
	 viewBox="0 0 464.667 464.667" style="enable-background:new 0 0 464.667 464.667;" xml:space="preserve">
<g>
	<g>
		<path d="M464.667,53.833c0-9.35-7.65-17-17-17H17c-9.35,0-17,7.65-17,17v357c0,9.35,7.65,17,17,17h430.667c9.35,0,17-7.65,17-17
			V53.833z M430.667,70.833v217.6l-99.733-69.983c-6.8-4.533-15.583-3.967-21.25,1.7l-51.85,49.867L150.167,166.033
			c-3.4-3.4-8.217-5.1-13.033-4.817c-4.817,0.283-9.35,2.833-12.183,6.517l-90.667,116.45V70.833H430.667z M34,393.833v-54.4
			l105.967-135.717L245.933,306c6.517,6.233,17,6.233,23.517,0l53.267-51.567l107.95,75.65v63.75H34z"/>
		<path d="M273.983,200.033c18.133,0,32.867-14.733,32.867-32.867S292.117,134.3,273.983,134.3s-32.867,14.733-32.867,32.867
			S255.85,200.033,273.983,200.033z"/>
	</g>
</g>
<g>
</g>
<g>
</g>
<g>
</g>
<g>
</g>
<g>
</g>
<g>
</g>
<g>
</g>
<g>
</g>
<g>
</g>
<g>
</g>
<g>
</g>
<g>
</g>
<g>
</g>
<g>
</g>
<g>
</g>
</svg>
