<?xml version="1.0" encoding="iso-8859-1"?>
<!-- Generator: Adobe Illustrator 18.1.1, SVG Export Plug-In . SVG Version: 6.00 Build 0)  -->
<svg version="1.1" id="Capa_1" xmlns="http://www.w3.org/2000/svg" xmlns:xlink="http://www.w3.org/1999/xlink" x="0px" y="0px"
	 viewBox="0 0 425.283 425.283" style="enable-background:new 0 0 425.283 425.283;" xml:space="preserve">
<g>
	<g>
		<path d="M0,212.673c0,9.35,7.65,17,17,17h346.517l-124.1,110.783c-7.083,6.233-7.65,17-1.417,24.083
			c3.4,3.683,7.933,5.667,12.75,5.667c3.967,0,7.933-1.417,11.333-4.25l157.533-140.533c3.683-3.117,5.667-7.933,5.667-12.75
			c0-4.817-1.983-9.35-5.667-12.75L262.083,59.39C255,53.157,244.233,53.723,238,60.807s-5.667,17.85,1.417,24.083l124.1,110.783H17
			C7.65,195.673,0,203.323,0,212.673z"/>
	</g>
</g>
<g>
</g>
<g>
</g>
<g>
</g>
<g>
</g>
<g>
</g>
<g>
</g>
<g>
</g>
<g>
</g>
<g>
</g>
<g>
</g>
<g>
</g>
<g>
</g>
<g>
</g>
<g>
</g>
<g>
</g>
</svg>
