<?xml version="1.0" encoding="iso-8859-1"?>
<!-- Generator: Adobe Illustrator 18.1.1, SVG Export Plug-In . SVG Version: 6.00 Build 0)  -->
<svg version="1.1" id="Capa_1" xmlns="http://www.w3.org/2000/svg" xmlns:xlink="http://www.w3.org/1999/xlink" x="0px" y="0px"
	 viewBox="0 0 452.496 452.496" style="enable-background:new 0 0 452.496 452.496;" xml:space="preserve">
<g>
	<g>
		<path d="M17,274.273h99.167c6.517,0,11.9-3.683,15.017-8.783c20.967,7.65,46.75,19.833,55.817,35.133
			c19.55,32.017,59.783,128.917,60.067,129.767c2.267,5.667,7.65,9.633,13.883,10.483c0.567,0,3.683,0.283,8.217,0.283
			c10.767,0,26.917-1.7,41.367-9.917c13.6-7.65,29.75-23.517,29.75-55.25c0-31.45-6.233-60.633-11.9-81.033
			c6.233,0.567,12.75,1.133,19.833,1.133c37.4,0,65.45-11.617,81.033-34c32.3-45.9,23.8-92.933,16.433-134.3
			c-0.567-2.55-0.85-5.383-1.417-7.933c-6.8-39.1-16.15-92.367-61.2-100.3c-17.567-3.117-56.95-8.217-93.783-8.217
			c-28.9,0-49.867,3.117-63.467,9.633c-15.017,7.083-26.067,14.45-34.85,20.4c-10.483,7.083-16.717,11.05-22.667,11.617
			c-2.267,0.283-4.817,0.283-7.65,0.283c-9.35,0-21.25-0.85-30.883-1.983c0.283-1.133,0.567-2.267,0.567-3.4
			c0.567-9.35-6.8-17.283-16.15-17.85l-96.333-5.1c-4.817-0.283-9.067,1.417-12.467,4.533C1.983,32.59,0,37.123,0,41.94v215.333
			C0,266.623,7.65,274.273,17,274.273z M171.417,86.99c14.733-1.417,26.067-9.067,38.25-17.283c8.217-5.667,17.85-11.9,30.317-17.85
			c5.1-2.267,18.133-6.517,49.017-6.517c34.567,0,71.4,4.817,87.833,7.933c14.167,2.55,23.517,14.733,33.717,72.533
			c0.567,2.833,0.85,5.383,1.417,8.217c6.8,38.25,13.317,74.233-10.767,108.8c-11.333,16.15-35.133,19.55-52.983,19.55
			c-21.817,0-40.517-4.817-40.8-4.817c-6.233-1.7-13.033,0.283-17.283,5.383c-4.25,4.817-5.383,11.9-2.833,17.85
			c0.283,0.567,18.7,45.333,18.7,95.767c0,16.433-7.083,22.667-12.75,25.5c-6.233,3.683-13.883,4.817-19.55,5.383
			c-11.05-26.633-41.083-96.05-58.083-124.1c-18.417-30.033-65.167-47.317-88.4-54.4V85.29c10.2,1.133,22.667,1.983,33.15,1.983
			C164.9,87.273,168.3,87.273,171.417,86.99z M34,60.073l59.783,3.117C93.5,64.04,93.5,65.173,93.5,66.023v174.25H34V60.073z"/>
	</g>
</g>
<g>
</g>
<g>
</g>
<g>
</g>
<g>
</g>
<g>
</g>
<g>
</g>
<g>
</g>
<g>
</g>
<g>
</g>
<g>
</g>
<g>
</g>
<g>
</g>
<g>
</g>
<g>
</g>
<g>
</g>
</svg>
