<?xml version="1.0" encoding="iso-8859-1"?>
<!-- Generator: Adobe Illustrator 18.1.1, SVG Export Plug-In . SVG Version: 6.00 Build 0)  -->
<svg version="1.1" id="Capa_1" xmlns="http://www.w3.org/2000/svg" xmlns:xlink="http://www.w3.org/1999/xlink" x="0px" y="0px"
	 viewBox="0 0 436.333 436.333" style="enable-background:new 0 0 436.333 436.333;" xml:space="preserve">
<g>
	<g>
		<path d="M345.667,59.5c0-32.867-26.633-59.5-59.5-59.5h-136c-32.867,0-59.5,26.633-59.5,59.5v317.333
			c0,32.867,26.633,59.5,59.5,59.5h136c32.867,0,59.5-26.633,59.5-59.5V59.5z M311.667,376.833c0,14.167-11.333,25.5-25.5,25.5h-136
			c-14.167,0-25.5-11.333-25.5-25.5V59.5c0-14.167,11.333-25.5,25.5-25.5h136c14.167,0,25.5,11.333,25.5,25.5V376.833z"/>
		<path d="M215.333,320.167c-4.533,0-8.783,1.7-11.9,5.1c-3.117,3.117-5.1,7.65-5.1,11.9s1.7,8.783,5.1,11.9
			c3.117,3.117,7.65,5.1,11.9,5.1s8.783-1.7,11.9-5.1c3.117-3.117,5.1-7.65,5.1-11.9s-1.7-8.783-5.1-11.9
			C224.117,321.867,219.867,320.167,215.333,320.167z"/>
	</g>
</g>
<g>
</g>
<g>
</g>
<g>
</g>
<g>
</g>
<g>
</g>
<g>
</g>
<g>
</g>
<g>
</g>
<g>
</g>
<g>
</g>
<g>
</g>
<g>
</g>
<g>
</g>
<g>
</g>
<g>
</g>
</svg>
