<?xml version="1.0" encoding="iso-8859-1"?>
<!-- Generator: Adobe Illustrator 18.1.1, SVG Export Plug-In . SVG Version: 6.00 Build 0)  -->
<svg version="1.1" id="Capa_1" xmlns="http://www.w3.org/2000/svg" xmlns:xlink="http://www.w3.org/1999/xlink" x="0px" y="0px"
	 viewBox="0 0 529.337 529.337" style="enable-background:new 0 0 529.337 529.337;" xml:space="preserve">
<g>
	<g>
		<path d="M279.438,41.827c-3.117-5.383-8.783-8.5-14.733-8.5c-5.95,0-11.617,3.117-14.733,8.5L2.338,470.51
			c-3.117,5.383-3.117,11.617,0,17c3.117,5.383,8.783,8.5,14.733,8.5h495.267l0,0c9.35,0,17-7.65,17-17
			c0-3.683-1.133-6.8-2.833-9.633L279.438,41.827z M46.538,462.01L264.704,84.327L482.871,462.01H46.538z"/>
		<path d="M247.421,201.344v130.333c0,9.35,7.65,17,17,17s17-7.65,17-17V201.344c0-9.35-7.65-17-17-17
			S247.421,191.994,247.421,201.344z"/>
		<path d="M264.421,371.344c-9.35,0-17,7.65-17,17v11.333c0,9.35,7.65,17,17,17s17-7.65,17-17v-11.333
			C281.421,378.994,273.771,371.344,264.421,371.344z"/>
	</g>
</g>
<g>
</g>
<g>
</g>
<g>
</g>
<g>
</g>
<g>
</g>
<g>
</g>
<g>
</g>
<g>
</g>
<g>
</g>
<g>
</g>
<g>
</g>
<g>
</g>
<g>
</g>
<g>
</g>
<g>
</g>
</svg>
