<?xml version="1.0" encoding="iso-8859-1"?>
<!-- Generator: Adobe Illustrator 18.1.1, SVG Export Plug-In . SVG Version: 6.00 Build 0)  -->
<svg version="1.1" id="Capa_1" xmlns="http://www.w3.org/2000/svg" xmlns:xlink="http://www.w3.org/1999/xlink" x="0px" y="0px"
	 viewBox="0 0 439.167 439.167" style="enable-background:new 0 0 439.167 439.167;" xml:space="preserve">
<g>
	<g>
		<path d="M108.942,0h-78.2c-9.35,0-17,6.233-17,15.583V420.75c0,9.35,7.65,18.417,17,18.417h78.2
			c9.35,0,18.133-9.067,18.133-18.417v-142.8c22.667-4.533,92.367-14.733,129.2,26.067c18.7,20.683,41.083,28.333,63.75,28.333
			c38.533,0,77.35-22.1,99.167-39.667c3.967-3.4,6.233-8.217,6.233-13.317l-3.4-189.267c0-6.233-3.683-11.9-9.067-14.733
			c-5.667-2.833-12.183-2.55-17.283,1.133c-13.883,9.35-56.667,32.3-86.7,24.933c-11.9-2.833-20.967-10.483-27.483-22.95
			c-18.7-35.417-55.533-54.967-107.1-56.383c-18.417-0.567-35.983,1.133-47.317,3.117v-9.633C127.075,6.233,118.292,0,108.942,0z
			 M93.075,405.167H47.742V34h45.333V405.167z M251.742,94.35c11.333,21.25,27.483,34.567,49.017,39.95
			c30.883,7.65,64.883-4.25,87.833-15.017l2.55,151.867c-18.983,13.317-75.367,48.167-109.65,10.2
			c-45.333-50.433-123.25-43.917-154.417-37.967v-183.6C155.408,54.4,226.808,47.033,251.742,94.35z"/>
	</g>
</g>
<g>
</g>
<g>
</g>
<g>
</g>
<g>
</g>
<g>
</g>
<g>
</g>
<g>
</g>
<g>
</g>
<g>
</g>
<g>
</g>
<g>
</g>
<g>
</g>
<g>
</g>
<g>
</g>
<g>
</g>
</svg>
